HIERARCHY
ROOT joint_Root
{
	OFFSET 0.0 0.0 0.0
	CHANNELS 6 Xposition Yposition Zposition Zrotation Xrotation Yrotation 
	JOINT Hips
	{
		OFFSET -17.1583 93.1646 452.98
		CHANNELS 6 Xposition Yposition Zposition Zrotation Xrotation Yrotation 
		JOINT Spine
		{
			OFFSET 15.7357 0.0 0.0
			CHANNELS 6 Xposition Yposition Zposition Zrotation Xrotation Yrotation 
			JOINT Chest
			{
				OFFSET 8.98455 -0.406207 0.0
				CHANNELS 6 Xposition Yposition Zposition Zrotation Xrotation Yrotation 
				JOINT Neck
				{
					OFFSET 16.3773 0.0 0.0
					CHANNELS 6 Xposition Yposition Zposition Zrotation Xrotation Yrotation 
					JOINT Head
					{
						OFFSET 6.45672 0.0 0.0
						CHANNELS 6 Xposition Yposition Zposition Zrotation Xrotation Yrotation 
						End Site
						{
							OFFSET 0.0 0.0 0.0
						}
					}
				}
				JOINT Shoulder_L
				{
					OFFSET 12.9942 -0.242716 4.98039
					CHANNELS 6 Xposition Yposition Zposition Zrotation Xrotation Yrotation 
					JOINT UpperArm_L
					{
						OFFSET 5.34809 0.0 0.0
						CHANNELS 6 Xposition Yposition Zposition Zrotation Xrotation Yrotation 
						JOINT LowerArm_L
						{
							OFFSET 24.3286 1.87007e-05 0.0
							CHANNELS 6 Xposition Yposition Zposition Zrotation Xrotation Yrotation 
							JOINT Hand_L
							{
								OFFSET 22.2916 0.0 0.0
								CHANNELS 6 Xposition Yposition Zposition Zrotation Xrotation Yrotation 
								End Site
								{
									OFFSET 0.0 0.0 0.0
								}
							}
						}
					}
				}
				JOINT Shoulder_R
				{
					OFFSET 12.9945 -0.242716 -4.98039
					CHANNELS 6 Xposition Yposition Zposition Zrotation Xrotation Yrotation 
					JOINT UpperArm_R
					{
						OFFSET -5.34813 0.0 0.0
						CHANNELS 6 Xposition Yposition Zposition Zrotation Xrotation Yrotation 
						JOINT LowerArm_R
						{
							OFFSET -24.3289 0.000322201 0.0
							CHANNELS 6 Xposition Yposition Zposition Zrotation Xrotation Yrotation 
							JOINT Hand_R
							{
								OFFSET -22.2915 -0.000108084 0.0
								CHANNELS 6 Xposition Yposition Zposition Zrotation Xrotation Yrotation 
								End Site
								{
									OFFSET 0.0 0.0 0.0
								}
							}
						}
					}
				}
			}
		}
		JOINT UpperLeg_L
		{
			OFFSET -2.19248 -6.46944 0.0
			CHANNELS 6 Xposition Yposition Zposition Zrotation Xrotation Yrotation 
			JOINT LowerLeg_L
			{
				OFFSET 39.0811 0.0 -1.23785e-05
				CHANNELS 6 Xposition Yposition Zposition Zrotation Xrotation Yrotation 
				JOINT Foot_L
				{
					OFFSET 40.9854 0.0 -1.26872e-05
					CHANNELS 6 Xposition Yposition Zposition Zrotation Xrotation Yrotation 
					JOINT Toes_L
					{
						OFFSET 11.7543 0.0 0.0
						CHANNELS 6 Xposition Yposition Zposition Zrotation Xrotation Yrotation 
						End Site
						{
							OFFSET 0.0 0.0 0.0
						}
					}
				}
			}
		}
		JOINT UpperLeg_R
		{
			OFFSET -2.19251 6.46944 0.0
			CHANNELS 6 Xposition Yposition Zposition Zrotation Xrotation Yrotation 
			JOINT LowerLeg_R
			{
				OFFSET -39.0811 -0.00228153 -0.0401928
				CHANNELS 6 Xposition Yposition Zposition Zrotation Xrotation Yrotation 
				JOINT Foot_R
				{
					OFFSET -40.9854 0.0 0.0
					CHANNELS 6 Xposition Yposition Zposition Zrotation Xrotation Yrotation 
					JOINT Toes_R
					{
						OFFSET -11.7543 0.0 0.0
						CHANNELS 6 Xposition Yposition Zposition Zrotation Xrotation Yrotation 
						End Site
						{
							OFFSET 0.0 0.0 0.0
						}
					}
				}
			}
		}
	}
}
MOTION
Frames:	9
Frame Time:	0.0333333
0.000000 0.000000 0.000000 0.000000 0.000000 -0.000000 2.776060 91.075500 -56.779900 93.967700 -5.943390 1.118830 15.735700 0.000005 -0.000001 116.284000 87.435900 -117.015000 8.984550 -0.406207 -0.000000 -3.153910 2.339500 -1.398350 16.377300 -0.000001 -0.000001 -1.477290 3.618550 -2.926690 6.456720 -0.000001 -0.000000 4.350540 2.497000 -0.598491 12.994200 -0.242716 4.980390 -93.546500 9.401770 -69.224100 5.348090 -0.000007 -0.000001 -64.858100 11.862700 -4.654750 24.328600 0.000019 0.000005 16.785800 25.427600 -35.080600 22.291600 -0.000001 0.000005 -4.467920 5.129440 4.429890 12.994500 -0.242716 -4.980390 88.992800 3.696050 -74.744600 -5.348130 -0.000001 -0.000004 -69.704300 4.774680 1.044110 -24.328900 0.000322 -0.000009 -0.002349 22.922700 0.000107 -22.291500 -0.000108 -0.000004 -4.356110 4.906830 9.167340 -2.192480 -6.469440 -0.000000 173.135000 -3.820240 -11.185100 39.081100 -0.000007 -0.000012 0.216655 -0.389796 29.066200 40.985400 -0.000006 -0.000013 3.416370 5.004860 -72.146300 11.754300 -0.000000 0.000003 0.000483 0.159060 -10.125800 -2.192510 6.469440 -0.000001 174.175000 -0.331705 160.886000 -39.081100 -0.002282 -0.040193 0.168025 -0.059929 70.028800 -40.985400 0.000008 0.000006 -2.697630 -2.074070 -39.087500 -11.754300 -0.000006 -0.000006 0.001459 0.137782 -10.985800
0.000000 0.000000 0.000000 0.000000 0.000000 -0.000000 2.084910 92.290900 -52.887100 91.505000 -3.568340 0.966811 15.735700 0.000005 -0.000001 92.710500 87.618500 -92.232000 8.984550 -0.406207 -0.000000 -3.009000 0.180178 0.961714 16.377300 -0.000001 -0.000001 -1.681700 3.783870 -3.471910 6.456720 -0.000001 -0.000000 4.487610 3.261360 -1.469530 12.994200 -0.242716 4.980390 -92.928100 8.168910 -70.203500 5.348090 -0.000007 -0.000001 -65.603700 15.288900 -8.679780 24.328600 0.000019 0.000005 21.474200 23.935700 -44.116800 22.291600 -0.000001 0.000005 -1.950190 5.085480 5.435490 12.994500 -0.242716 -4.980390 89.365200 2.279380 -74.431500 -5.348130 -0.000001 -0.000004 -67.204400 -2.128950 6.840920 -24.328900 0.000322 -0.000009 -0.001690 22.146100 0.000103 -22.291500 -0.000108 -0.000004 0.577694 4.727770 12.644200 -2.192480 -6.469440 -0.000000 176.992000 -2.809030 -5.136980 39.081100 -0.000007 -0.000012 -0.004327 0.010526 22.344800 40.985400 -0.000006 -0.000013 -2.382200 8.141800 -68.762300 11.754300 -0.000000 0.000003 0.000716 0.154551 -10.308800 -2.192510 6.469440 -0.000001 177.861000 1.620930 157.195000 -39.081100 -0.002282 -0.040193 0.143494 -0.059143 67.149400 -40.985400 0.000008 0.000006 -2.841950 -2.078210 -45.349200 -11.754300 -0.000006 -0.000006 0.001396 0.139394 -10.920400
0.000000 0.000000 0.000000 0.000000 0.000000 -0.000000 1.452410 93.343200 -49.213000 89.994400 -0.748574 0.440807 15.735700 0.000005 -0.000001 66.612300 87.414800 -65.329800 8.984550 -0.406207 -0.000000 -2.995790 -2.171940 2.508750 16.377300 -0.000001 -0.000001 -1.909520 3.812120 -3.773890 6.456720 -0.000001 -0.000000 3.929530 4.138320 -1.686920 12.994200 -0.242716 4.980390 -92.409000 7.144830 -71.313900 5.348090 -0.000007 -0.000001 -64.485500 16.755700 -12.386500 24.328600 0.000019 0.000005 23.180000 19.420300 -52.176000 22.291600 -0.000001 0.000005 -0.195322 5.056830 6.084750 12.994500 -0.242716 -4.980390 89.538900 1.577910 -73.706100 -5.348130 -0.000001 -0.000004 -62.759600 -7.233030 13.239000 -24.328900 0.000322 -0.000009 0.101253 16.908200 -0.362393 -22.291500 -0.000108 -0.000004 2.915570 4.824400 10.859400 -2.192480 -6.469440 -0.000000 179.378000 -2.228910 -0.634540 39.081100 -0.000007 -0.000012 -0.016444 0.054828 16.694900 40.985400 -0.000006 -0.000013 -4.138150 10.409800 -64.798500 11.754300 -0.000000 0.000003 0.001820 0.127243 -11.416800 -2.192510 6.469440 -0.000001 -179.665000 3.859430 154.566000 -39.081100 -0.002282 -0.040193 0.124809 -0.069542 60.237300 -40.985400 0.000008 0.000006 -3.230200 -2.490420 -51.289800 -11.754300 -0.000006 -0.000006 0.001020 0.148241 -10.561400
0.000000 0.000000 0.000000 0.000000 0.000000 -0.000000 0.912176 94.004700 -45.717300 89.351000 1.984920 -0.471508 15.735700 0.000005 -0.000001 46.965800 86.883900 -45.227100 8.984550 -0.406207 -0.000000 -3.145450 -4.416680 3.357950 16.377300 -0.000001 -0.000001 -2.272080 3.705160 -3.691510 6.456720 -0.000001 -0.000000 3.188370 5.120090 -1.935480 12.994200 -0.242716 4.980390 -92.000300 6.388430 -72.574800 5.348090 -0.000007 -0.000001 -61.859700 16.669000 -16.073300 24.328600 0.000019 0.000005 22.151400 14.328900 -58.713100 22.291600 -0.000001 0.000005 1.893010 5.078830 5.603640 12.994500 -0.242716 -4.980390 89.703100 0.940411 -72.472100 -5.348130 -0.000001 -0.000004 -58.137900 -10.796000 18.371100 -24.328900 0.000322 -0.000009 0.577183 9.596140 -3.480730 -22.291500 -0.000108 -0.000004 2.744760 5.025060 6.770860 -2.192480 -6.469440 -0.000000 -179.071000 -3.028060 2.488700 39.081100 -0.000007 -0.000012 -0.006228 0.028318 12.403500 40.985400 -0.000006 -0.000013 -4.871980 13.296500 -61.438600 11.754300 -0.000000 0.000003 0.002399 0.099601 -12.537700 -2.192510 6.469440 -0.000001 -178.286000 6.016750 152.992000 -39.081100 -0.002282 -0.040193 0.101976 -0.084642 49.392100 -40.985400 0.000008 0.000006 -4.051540 -4.082370 -55.149800 -11.754300 -0.000006 -0.000006 0.001142 0.145513 -10.672100
0.000000 0.000000 0.000000 0.000000 0.000000 -0.000000 0.462483 94.177000 -42.229000 89.213900 4.109250 -1.132670 15.735700 0.000005 -0.000001 37.010100 86.206700 -35.078900 8.984550 -0.406207 -0.000000 -3.099500 -6.238380 3.697000 16.377300 -0.000001 -0.000001 -2.720340 3.581890 -3.261880 6.456720 -0.000001 -0.000000 2.590330 6.141620 -2.097550 12.994200 -0.242716 4.980390 -91.646800 5.639220 -73.692600 5.348090 -0.000007 -0.000001 -58.355900 15.568300 -20.053800 24.328600 0.000019 0.000005 19.012100 10.066700 -63.108300 22.291600 -0.000001 0.000005 4.841570 5.145590 4.066900 12.994500 -0.242716 -4.980390 89.883800 0.344643 -71.353900 -5.348130 -0.000001 -0.000004 -54.040300 -13.469500 22.176100 -24.328900 0.000322 -0.000009 0.333235 3.315140 -5.783060 -22.291500 -0.000108 -0.000004 2.548000 5.136780 4.259280 -2.192480 -6.469440 -0.000000 -177.984000 -4.048890 5.298150 39.081100 -0.000007 -0.000012 -0.000576 0.003449 9.473280 40.985400 -0.000006 -0.000013 -4.840460 16.046600 -59.486000 11.754300 -0.000000 0.000003 0.002353 0.064338 -13.967300 -2.192510 6.469440 -0.000001 -177.531000 8.014350 153.557000 -39.081100 -0.002282 -0.040193 0.066174 -0.090372 34.831100 -40.985400 0.000008 0.000006 -4.890260 -6.133140 -58.379700 -11.754300 -0.000006 -0.000006 0.000931 0.150173 -10.483000
0.000000 0.000000 0.000000 0.000000 0.000000 -0.000000 0.151501 93.758300 -38.565500 89.614500 5.459980 -1.141170 15.735700 0.000005 -0.000001 34.371800 85.529800 -32.504300 8.984550 -0.406207 -0.000000 -2.602100 -7.545710 3.567650 16.377300 -0.000001 -0.000001 -3.180400 3.557420 -2.812300 6.456720 -0.000001 -0.000000 2.143520 7.056170 -2.035590 12.994200 -0.242716 4.980390 -91.358900 4.918270 -74.534600 5.348090 -0.000007 -0.000001 -54.794100 13.578800 -24.286500 24.328600 0.000019 0.000005 16.156100 7.615570 -65.419200 22.291600 -0.000001 0.000005 7.507960 5.206620 2.557170 12.994500 -0.242716 -4.980390 90.146600 -0.420785 -70.797300 -5.348130 -0.000001 -0.000004 -50.956200 -15.839500 24.785200 -24.328900 0.000322 -0.000009 0.140000 1.128110 -7.123370 -22.291500 -0.000108 -0.000004 5.063050 5.150710 3.925360 -2.192480 -6.469440 -0.000000 -177.621000 -3.944780 7.989250 39.081100 -0.000007 -0.000012 -0.001017 0.006645 8.698270 40.985400 -0.000006 -0.000013 -4.351390 17.168600 -59.649500 11.754300 -0.000000 0.000003 0.001604 0.033853 -15.203500 -2.192510 6.469440 -0.000001 -177.423000 9.789620 156.137000 -39.081100 -0.002282 -0.040193 0.034168 -0.092455 18.449000 -40.985400 0.000008 0.000006 -4.903300 -7.005820 -59.229600 -11.754300 -0.000006 -0.000006 0.000685 0.155208 -10.278700
0.000000 0.000000 0.000000 0.000000 0.000000 -0.000000 -0.071251 92.871800 -34.633600 90.350600 6.198490 -0.626185 15.735700 0.000005 -0.000001 35.869600 84.963500 -34.280500 8.984550 -0.406207 -0.000000 -1.752110 -8.292700 3.054680 16.377300 -0.000001 -0.000001 -3.507160 3.572990 -2.349020 6.456720 -0.000001 -0.000000 1.757900 7.602840 -1.768950 12.994200 -0.242716 4.980390 -91.195500 4.486730 -75.063300 5.348090 -0.000007 -0.000001 -51.796600 10.937300 -28.778900 24.328600 0.000019 0.000005 15.347600 7.084000 -65.804200 22.291600 -0.000001 0.000005 8.682760 5.208760 2.498550 12.994500 -0.242716 -4.980390 90.314600 -0.916835 -71.059700 -5.348130 -0.000001 -0.000004 -48.630800 -17.960600 26.638400 -24.328900 0.000322 -0.000009 0.319882 2.595970 -7.058990 -22.291500 -0.000108 -0.000004 10.361100 5.144110 4.077370 -2.192480 -6.469440 -0.000000 -177.764000 -3.210620 10.332800 39.081100 -0.000007 -0.000012 -0.005423 0.029785 10.316900 40.985400 -0.000006 -0.000013 -3.764420 17.267700 -61.365600 11.754300 -0.000000 0.000003 -0.000205 -0.003383 -16.714900 -2.192510 6.469440 -0.000001 -178.019000 10.675800 157.806000 -39.081100 -0.002282 -0.040193 0.013939 -0.080262 7.520380 -40.985400 0.000008 0.000006 -5.835970 -5.424580 -61.908300 -11.754300 -0.000006 -0.000006 0.000785 0.153208 -10.359800
0.000000 0.000000 0.000000 0.000000 0.000000 -0.000000 -0.450818 91.710900 -30.431700 90.591400 6.570280 -0.389188 15.735700 0.000005 -0.000001 37.918200 84.766400 -36.474400 8.984550 -0.406207 -0.000000 -1.228210 -8.368950 2.800710 16.377300 -0.000001 -0.000001 -3.452150 3.430000 -2.142520 6.456720 -0.000001 -0.000000 1.328230 7.468120 -1.387220 12.994200 -0.242716 4.980390 -91.285500 4.912980 -75.317400 5.348090 -0.000007 -0.000001 -49.789100 8.403030 -33.173600 24.328600 0.000019 0.000005 15.786500 7.912680 -64.038600 22.291600 -0.000001 0.000005 8.532840 5.192560 2.905340 12.994500 -0.242716 -4.980390 90.151800 -0.457065 -71.632900 -5.348130 -0.000001 -0.000004 -46.463800 -19.218800 27.732000 -24.328900 0.000322 -0.000009 0.409656 4.310380 -5.451540 -22.291500 -0.000108 -0.000004 16.695000 5.110750 4.843760 -2.192480 -6.469440 -0.000000 -177.118000 -3.140270 11.433300 39.081100 -0.000007 -0.000012 -0.014847 0.059291 14.057500 40.985400 -0.000006 -0.000013 -3.052110 17.902200 -63.660100 11.754300 -0.000000 0.000003 -0.005865 -0.069613 -19.409800 -2.192510 6.469440 -0.000001 -178.174000 10.639800 155.982000 -39.081100 -0.002282 -0.040193 0.005247 -0.017618 6.159750 -40.985400 0.000008 0.000006 -6.489620 -2.318150 -65.534100 -11.754300 -0.000006 -0.000006 0.000953 0.149694 -10.502500
0.000000 0.000000 0.000000 0.000000 0.000000 -0.000000 -0.904386 90.486700 -25.712100 90.357900 6.462210 -0.446280 15.735700 0.000005 -0.000001 39.770600 84.945300 -38.276500 8.984550 -0.406207 -0.000000 -1.195630 -7.885390 2.908260 16.377300 -0.000001 -0.000001 -3.012050 3.358730 -2.532520 6.456720 -0.000001 -0.000000 1.028140 6.745340 -0.861714 12.994200 -0.242716 4.980390 -91.415100 5.347610 -75.154800 5.348090 -0.000007 -0.000001 -50.846500 6.563860 -36.218000 24.328600 0.000019 0.000005 15.984000 9.232240 -60.747600 22.291600 -0.000001 0.000005 8.525110 5.174390 3.352160 12.994500 -0.242716 -4.980390 89.857800 0.444639 -72.256000 -5.348130 -0.000001 -0.000004 -45.101000 -19.187500 27.811300 -24.328900 0.000322 -0.000009 0.257185 5.069250 -2.923580 -22.291500 -0.000108 -0.000004 21.864300 5.035430 6.532030 -2.192480 -6.469440 -0.000000 -175.790000 -3.531480 12.417700 39.081100 -0.000007 -0.000012 -0.022215 0.069047 17.835000 40.985400 -0.000006 -0.000013 -2.469420 18.910300 -64.979600 11.754300 -0.000000 0.000003 -0.019597 -0.165058 -23.319800 -2.192510 6.469440 -0.000001 -178.254000 9.335770 155.231000 -39.081100 -0.002282 -0.040193 0.006338 -0.025591 6.671700 -40.985400 0.000008 0.000006 -7.227120 0.089439 -66.348900 -11.754300 -0.000006 -0.000006 0.001043 0.147738 -10.581800
